<svg width="154" height="31" viewBox="0 0 154 31" fill="none" xmlns="http://www.w3.org/2000/svg">
<path d="M9.40904 6.90909V9.18182H-5.54323e-05V6.90909H9.40904ZM2.81813 24.3636V4.5C2.81813 3.5 3.05297 2.66667 3.52267 2C3.99237 1.33333 4.60222 0.833333 5.35222 0.5C6.10222 0.166667 6.89388 0 7.72722 0C8.38631 0 8.92419 0.0530306 9.34085 0.159092C9.75752 0.265152 10.0681 0.363637 10.2727 0.454546L9.49994 2.77273C9.36358 2.72727 9.17419 2.67046 8.93176 2.60227C8.69691 2.53409 8.38631 2.5 7.99994 2.5C7.11358 2.5 6.47343 2.72349 6.07949 3.17046C5.69313 3.61743 5.49994 4.27273 5.49994 5.13636V24.3636H2.81813ZM19.6797 24.7273C18.104 24.7273 16.7214 24.3523 15.532 23.6023C14.3502 22.8523 13.4259 21.803 12.7593 20.4545C12.1002 19.1061 11.7706 17.5303 11.7706 15.7273C11.7706 13.9091 12.1002 12.322 12.7593 10.9659C13.4259 9.60985 14.3502 8.55682 15.532 7.80682C16.7214 7.05682 18.104 6.68182 19.6797 6.68182C21.2555 6.68182 22.6343 7.05682 23.8161 7.80682C25.0055 8.55682 25.9297 9.60985 26.5888 10.9659C27.2555 12.322 27.5888 13.9091 27.5888 15.7273C27.5888 17.5303 27.2555 19.1061 26.5888 20.4545C25.9297 21.803 25.0055 22.8523 23.8161 23.6023C22.6343 24.3523 21.2555 24.7273 19.6797 24.7273ZM19.6797 22.3182C20.8767 22.3182 21.8615 22.0114 22.6343 21.3977C23.407 20.7841 23.979 19.9773 24.3502 18.9773C24.7214 17.9773 24.907 16.8939 24.907 15.7273C24.907 14.5606 24.7214 13.4735 24.3502 12.4659C23.979 11.4583 23.407 10.6439 22.6343 10.0227C21.8615 9.40152 20.8767 9.09091 19.6797 9.09091C18.4827 9.09091 17.4979 9.40152 16.7252 10.0227C15.9524 10.6439 15.3805 11.4583 15.0093 12.4659C14.6381 13.4735 14.4524 14.5606 14.4524 15.7273C14.4524 16.8939 14.6381 17.9773 15.0093 18.9773C15.3805 19.9773 15.9524 20.7841 16.7252 21.3977C17.4979 22.0114 18.4827 22.3182 19.6797 22.3182ZM31.8226 24.3636V6.90909H34.4135V9.54546H34.5953C34.9135 8.68182 35.4892 7.98106 36.3226 7.44318C37.1559 6.9053 38.0953 6.63636 39.1407 6.63636C39.3377 6.63636 39.5839 6.64015 39.8794 6.64773C40.1748 6.6553 40.3983 6.66667 40.5498 6.68182V9.40909C40.4589 9.38636 40.2506 9.35227 39.9248 9.30682C39.6067 9.25379 39.2695 9.22727 38.9135 9.22727C38.065 9.22727 37.3074 9.4053 36.6407 9.76136C35.9816 10.1098 35.4589 10.5947 35.0726 11.2159C34.6938 11.8295 34.5044 12.5303 34.5044 13.3182V24.3636H31.8226ZM43.8688 24.3636V6.90909H46.4597V9.63636H46.687C47.0506 8.70455 47.6377 7.98106 48.4484 7.46591C49.259 6.94318 50.2324 6.68182 51.3688 6.68182C52.5203 6.68182 53.4787 6.94318 54.2438 7.46591C55.0165 7.98106 55.6188 8.70455 56.0506 9.63636H56.2324C56.6794 8.73485 57.3499 8.01894 58.2438 7.48864C59.1377 6.95076 60.2097 6.68182 61.4597 6.68182C63.0203 6.68182 64.2968 7.17046 65.2893 8.14773C66.2817 9.11743 66.7779 10.6288 66.7779 12.6818V24.3636H64.0961V12.6818C64.0961 11.3939 63.7438 10.4735 63.0393 9.92046C62.3347 9.36743 61.5052 9.09091 60.5506 9.09091C59.3234 9.09091 58.3726 9.46212 57.6984 10.2045C57.0241 10.9394 56.687 11.8712 56.687 13V24.3636H53.9597V12.4091C53.9597 11.4167 53.6377 10.6174 52.9938 10.0114C52.3499 9.39773 51.5203 9.09091 50.5052 9.09091C49.8082 9.09091 49.1567 9.27652 48.5506 9.64773C47.9521 10.0189 47.4673 10.5341 47.0961 11.1932C46.7324 11.8447 46.5506 12.5985 46.5506 13.4545V24.3636H43.8688ZM78.9122 24.7273C77.2759 24.7273 75.8668 24.3409 74.6849 23.5682C73.5031 22.7955 72.594 21.7311 71.9577 20.375C71.3213 19.0189 71.0031 17.4697 71.0031 15.7273C71.0031 13.9545 71.3289 12.3902 71.9804 11.0341C72.6395 9.67046 73.5562 8.60606 74.7304 7.84091C75.9122 7.06818 77.291 6.68182 78.8668 6.68182C80.094 6.68182 81.2001 6.90909 82.1849 7.36364C83.1698 7.81818 83.9766 8.45455 84.6054 9.27273C85.2342 10.0909 85.6243 11.0455 85.7759 12.1364H83.094C82.8895 11.3409 82.4349 10.6364 81.7304 10.0227C81.0334 9.40152 80.094 9.09091 78.9122 9.09091C77.8668 9.09091 76.9501 9.36364 76.1622 9.90909C75.3819 10.447 74.7721 11.2083 74.3327 12.1932C73.9009 13.1705 73.6849 14.3182 73.6849 15.6364C73.6849 16.9848 73.8971 18.1591 74.3213 19.1591C74.7531 20.1591 75.3592 20.9356 76.1395 21.4886C76.9274 22.0417 77.8516 22.3182 78.9122 22.3182C79.6092 22.3182 80.2418 22.197 80.8099 21.9545C81.3781 21.7121 81.8592 21.3636 82.2531 20.9091C82.6471 20.4545 82.9274 19.9091 83.094 19.2727H85.7759C85.6243 20.303 85.2493 21.2311 84.6509 22.0568C84.0599 22.875 83.2759 23.5265 82.2986 24.0114C81.3289 24.4886 80.2001 24.7273 78.9122 24.7273ZM94.9727 24.7727C93.8666 24.7727 92.8628 24.5644 91.9613 24.1477C91.0598 23.7235 90.3439 23.1136 89.8136 22.3182C89.2833 21.5152 89.0181 20.5455 89.0181 19.4091C89.0181 18.4091 89.2151 17.5985 89.609 16.9773C90.003 16.3485 90.5295 15.8561 91.1886 15.5C91.8477 15.1439 92.5749 14.8788 93.3704 14.7045C94.1734 14.5227 94.9802 14.3788 95.7909 14.2727C96.8515 14.1364 97.7113 14.0341 98.3704 13.9659C99.0371 13.8902 99.5219 13.7652 99.8249 13.5909C100.136 13.4167 100.291 13.1136 100.291 12.6818V12.5909C100.291 11.4697 99.984 10.5985 99.3704 9.97727C98.7643 9.35606 97.8439 9.04546 96.609 9.04546C95.3287 9.04546 94.3249 9.32576 93.5977 9.88636C92.8704 10.447 92.359 11.0455 92.0636 11.6818L89.5181 10.7727C89.9727 9.71212 90.5787 8.88636 91.3363 8.29546C92.1015 7.69697 92.9348 7.2803 93.8363 7.04546C94.7454 6.80303 95.6393 6.68182 96.5181 6.68182C97.0787 6.68182 97.7227 6.75 98.4499 6.88636C99.1848 7.01515 99.8931 7.28409 100.575 7.69318C101.264 8.10227 101.836 8.7197 102.291 9.54546C102.745 10.3712 102.973 11.4773 102.973 12.8636V24.3636H100.291V22H100.154C99.9727 22.3788 99.6696 22.7841 99.2454 23.2159C98.8212 23.6477 98.2568 24.0152 97.5522 24.3182C96.8477 24.6212 95.9878 24.7727 94.9727 24.7727ZM95.3818 22.3636C96.4424 22.3636 97.3363 22.1553 98.0636 21.7386C98.7984 21.322 99.3515 20.7841 99.7227 20.125C100.101 19.4659 100.291 18.7727 100.291 18.0455V15.5909C100.177 15.7273 99.9272 15.8523 99.5409 15.9659C99.1621 16.072 98.7227 16.1667 98.2227 16.25C97.7302 16.3258 97.2492 16.3939 96.7795 16.4545C96.3174 16.5076 95.9424 16.553 95.6545 16.5909C94.9575 16.6818 94.306 16.8295 93.6999 17.0341C93.1015 17.2311 92.6166 17.5303 92.2454 17.9318C91.8818 18.3258 91.6999 18.8636 91.6999 19.5455C91.6999 20.4773 92.0446 21.1818 92.734 21.6591C93.431 22.1288 94.3136 22.3636 95.3818 22.3636ZM108.008 24.3636V6.90909H110.598V9.54546H110.78C111.098 8.68182 111.674 7.98106 112.508 7.44318C113.341 6.9053 114.28 6.63636 115.326 6.63636C115.523 6.63636 115.769 6.64015 116.064 6.64773C116.36 6.6553 116.583 6.66667 116.735 6.68182V9.40909C116.644 9.38636 116.436 9.35227 116.11 9.30682C115.792 9.25379 115.455 9.22727 115.098 9.22727C114.25 9.22727 113.492 9.4053 112.826 9.76136C112.167 10.1098 111.644 10.5947 111.258 11.2159C110.879 11.8295 110.689 12.5303 110.689 13.3182V24.3636H108.008ZM120.054 24.3636V6.90909H122.645V9.54546H122.827C123.145 8.68182 123.72 7.98106 124.554 7.44318C125.387 6.9053 126.327 6.63636 127.372 6.63636C127.569 6.63636 127.815 6.64015 128.111 6.64773C128.406 6.6553 128.63 6.66667 128.781 6.68182V9.40909C128.69 9.38636 128.482 9.35227 128.156 9.30682C127.838 9.25379 127.501 9.22727 127.145 9.22727C126.296 9.22727 125.539 9.4053 124.872 9.76136C124.213 10.1098 123.69 10.5947 123.304 11.2159C122.925 11.8295 122.736 12.5303 122.736 13.3182V24.3636H120.054ZM134.359 30.9091C133.904 30.9091 133.499 30.8712 133.143 30.7955C132.787 30.7273 132.54 30.6591 132.404 30.5909L133.086 28.2273C133.737 28.3939 134.313 28.4545 134.813 28.4091C135.313 28.3636 135.756 28.1402 136.143 27.7386C136.537 27.3447 136.896 26.7045 137.222 25.8182L137.722 24.4545L131.268 6.90909H134.177L138.995 20.8182H139.177L143.995 6.90909H146.904L139.495 26.9091C139.162 27.8106 138.749 28.5568 138.256 29.1477C137.764 29.7462 137.192 30.1894 136.54 30.4773C135.896 30.7652 135.169 30.9091 134.359 30.9091ZM151.445 24.5455C150.884 24.5455 150.403 24.3447 150.001 23.9432C149.6 23.5417 149.399 23.0606 149.399 22.5C149.399 21.9394 149.6 21.4583 150.001 21.0568C150.403 20.6553 150.884 20.4545 151.445 20.4545C152.005 20.4545 152.486 20.6553 152.888 21.0568C153.289 21.4583 153.49 21.9394 153.49 22.5C153.49 22.8712 153.395 23.2121 153.206 23.5227C153.024 23.8333 152.778 24.0833 152.467 24.2727C152.164 24.4545 151.823 24.5455 151.445 24.5455Z" fill="#0E0B3D"/>
</svg>
